<svg width="440" height="441" viewBox="0 0 1440 1141" fill="none" xmlns="http://www.w3.org/2000/svg">
<g clip-path="url(#clip0_72_1302)">
<rect width="440" height="441" fill="black"/>
<g opacity="0.42" filter="url(#filter0_f_72_1302)">
<circle cx="212.5" cy="609.5" r="335.5" fill="url(#paint0_radial_72_1302)"/>
</g>
<g opacity="0.42" filter="url(#filter1_f_72_1302)">
<circle cx="1342" cy="352" r="168" fill="url(#paint1_radial_72_1302)"/>
</g>
<rect x="1327.27" y="572.364" width="3.25833" height="3.25833" transform="rotate(-32.8977 1327.27 572.364)" fill="#8EFF8B" fill-opacity="0.5"/>
<rect x="1395.57" y="510.356" width="6.5806" height="6.58059" transform="rotate(-75.3357 1395.57 510.356)" fill="#8EFF8B" fill-opacity="0.5"/>
<rect width="3.06209" height="3.06209" transform="matrix(-0.253155 0.967426 0.967426 0.253155 1338.77 404.071)" fill="#8EFF8B" fill-opacity="0.5"/>
<rect width="3.25833" height="3.25833" transform="matrix(0.253199 -0.967414 0.967437 0.253111 1414.33 418.412)" fill="#8EFF8B" fill-opacity="0.5"/>
<rect x="1386.62" y="638.821" width="3.25833" height="3.25833" transform="rotate(-75.3357 1386.62 638.821)" fill="#8EFF8B" fill-opacity="0.5"/>
<rect x="1283.19" y="679.21" width="3.25833" height="3.25833" transform="rotate(-75.3357 1283.19 679.21)" fill="#8EFF8B"/>
<rect width="2.27427" height="2.27427" transform="matrix(0.253123 -0.967434 0.967417 0.253187 1313.31 603.921)" fill="#8EFF8B"/>
<rect width="4.24306" height="4.24306" transform="matrix(0.253172 -0.967421 0.96743 0.253138 1317.5 633.607)" fill="#8EFF8B"/>
<rect x="1147.1" y="469.855" width="6.58059" height="6.5806" transform="rotate(9.69009 1147.1 469.855)" fill="#8EFF8B" fill-opacity="0.5"/>
<rect width="3.06209" height="3.06209" transform="matrix(-0.985732 -0.168319 -0.168319 0.985733 1248.06 404.047)" fill="#8EFF8B" fill-opacity="0.5"/>
<rect x="1240.32" y="480.573" width="3.25833" height="3.25833" transform="rotate(9.69009 1240.32 480.573)" fill="#8EFF8B" fill-opacity="0.5"/>
<rect x="1018.34" y="472.077" width="3.25833" height="3.25833" transform="rotate(9.69009 1018.34 472.077)" fill="#8EFF8B" fill-opacity="0.5"/>
<rect x="969.136" y="372.533" width="3.25833" height="3.25833" transform="rotate(9.69009 969.136 372.533)" fill="#8EFF8B"/>
<rect width="2.27427" height="2.27427" transform="matrix(0.985735 0.168305 -0.168333 0.98573 1046.75 396.01)" fill="#8EFF8B"/>
<rect x="1017.54" y="402.764" width="4.24306" height="4.24306" transform="rotate(9.69009 1017.54 402.764)" fill="#8EFF8B"/>
<rect x="501.908" y="325.364" width="3.25833" height="3.25833" transform="rotate(-32.8977 501.908 325.364)" fill="#8EFF8B" fill-opacity="0.5"/>
<rect x="572.609" y="305.143" width="6.5806" height="6.58059" transform="rotate(-32.8977 572.609 305.143)" fill="#8EFF8B" fill-opacity="0.5"/>
<rect width="3.06209" height="3.06209" transform="matrix(-0.839642 0.54314 0.54314 0.839642 602.405 188.371)" fill="#8EFF8B" fill-opacity="0.5"/>
<rect width="3.25833" height="3.25833" transform="matrix(0.839667 -0.543102 0.543179 0.839617 648.497 249.946)" fill="#8EFF8B" fill-opacity="0.5"/>
<rect x="479.316" y="393.912" width="3.25833" height="3.25833" transform="rotate(-32.8977 479.316 393.912)" fill="#8EFF8B" fill-opacity="0.5"/>
<rect x="375.724" y="353.921" width="3.25833" height="3.25833" transform="rotate(-32.8977 375.724 353.921)" fill="#8EFF8B"/>
<rect width="2.27427" height="2.27427" transform="matrix(0.839624 -0.543168 0.543113 0.83966 448.758 318.681)" fill="#8EFF8B"/>
<rect width="4.24306" height="4.24306" transform="matrix(0.839652 -0.543126 0.543155 0.839632 431.822 343.421)" fill="#8EFF8B"/>
<rect x="321.739" y="222.855" width="6.58059" height="6.5806" transform="rotate(9.69009 321.739 222.855)" fill="#8EFF8B" fill-opacity="0.5"/>
<rect width="3.06209" height="3.06209" transform="matrix(-0.985732 -0.168319 -0.168319 0.985733 422.7 157.047)" fill="#8EFF8B" fill-opacity="0.5"/>
<rect x="414.966" y="233.573" width="3.25833" height="3.25833" transform="rotate(9.69009 414.966 233.573)" fill="#8EFF8B" fill-opacity="0.5"/>
<rect x="192.983" y="225.077" width="3.25833" height="3.25833" transform="rotate(9.69009 192.983 225.077)" fill="#8EFF8B" fill-opacity="0.5"/>
<rect x="143.777" y="125.533" width="3.25833" height="3.25833" transform="rotate(9.69009 143.777 125.533)" fill="#8EFF8B"/>
<rect width="2.27427" height="2.27427" transform="matrix(0.985735 0.168305 -0.168333 0.98573 221.395 149.01)" fill="#8EFF8B"/>
<rect x="192.185" y="155.764" width="4.24306" height="4.24306" transform="rotate(9.69009 192.185 155.764)" fill="#8EFF8B"/>
<rect x="544.234" y="987.617" width="3.25833" height="3.25833" transform="rotate(-70.6365 544.234 987.617)" fill="#8EFF8B" fill-opacity="0.5"/>
<rect x="587.769" y="928.353" width="6.5806" height="6.5806" transform="rotate(-70.6365 587.769 928.353)" fill="#8EFF8B" fill-opacity="0.5"/>
<rect width="3.06209" height="3.06209" transform="matrix(-0.331561 0.943434 0.943434 0.331561 539.86 817.772)" fill="#8EFF8B" fill-opacity="0.5"/>
<rect width="3.25833" height="3.25833" transform="matrix(0.331604 -0.943419 0.943449 0.331517 613.998 838.255)" fill="#8EFF8B" fill-opacity="0.5"/>
<rect x="568.324" y="1055.65" width="3.25833" height="3.25833" transform="rotate(-70.6365 568.324 1055.65)" fill="#8EFF8B" fill-opacity="0.5"/>
<rect x="461.926" y="1087.43" width="3.25833" height="3.25833" transform="rotate(-70.6365 461.926 1087.43)" fill="#8EFF8B"/>
<rect width="2.27427" height="2.27427" transform="matrix(0.33153 -0.943445 0.943423 0.331591 498.113 1014.86)" fill="#8EFF8B"/>
<rect width="4.24306" height="4.24306" transform="matrix(0.331577 -0.943428 0.94344 0.331544 499.861 1044.79)" fill="#8EFF8B"/>
<rect x="339.013" y="1016.83" width="6.58059" height="6.5806" transform="rotate(-28.0487 339.013 1016.83)" fill="#8EFF8B" fill-opacity="0.5"/>
<rect width="3.06209" height="3.06209" transform="matrix(-0.882548 0.470222 0.470222 0.882548 378.575 902.991)" fill="#8EFF8B" fill-opacity="0.5"/>
<rect x="419.298" y="968.243" width="3.25833" height="3.25833" transform="rotate(-28.0487 419.298 968.243)" fill="#8EFF8B" fill-opacity="0.5"/>
<rect x="238.552" y="1097.39" width="3.25833" height="3.25833" transform="rotate(-28.0487 238.552 1097.39)" fill="#8EFF8B" fill-opacity="0.5"/>
<rect x="138.712" y="1048.79" width="3.25833" height="3.25833" transform="rotate(-28.0487 138.712 1048.79)" fill="#8EFF8B"/>
<rect width="2.27427" height="2.27427" transform="matrix(0.882541 -0.470235 0.470209 0.882555 214.462 1019.85)" fill="#8EFF8B"/>
<rect x="195.496" y="1043.07" width="4.24306" height="4.24306" transform="rotate(-28.0487 195.496 1043.07)" fill="#8EFF8B"/>
</g>
<defs>
<filter id="filter0_f_72_1302" x="-423" y="-26" width="1271" height="1271" filterUnits="userSpaceOnUse" color-interpolation-filters="sRGB">
<feFlood flood-opacity="0" result="BackgroundImageFix"/>
<feBlend mode="normal" in="SourceGraphic" in2="BackgroundImageFix" result="shape"/>
<feGaussianBlur stdDeviation="150" result="effect1_foregroundBlur_72_1302"/>
</filter>
<filter id="filter1_f_72_1302" x="874" y="-116" width="936" height="936" filterUnits="userSpaceOnUse" color-interpolation-filters="sRGB">
<feFlood flood-opacity="0" result="BackgroundImageFix"/>
<feBlend mode="normal" in="SourceGraphic" in2="BackgroundImageFix" result="shape"/>
<feGaussianBlur stdDeviation="150" result="effect1_foregroundBlur_72_1302"/>
</filter>
<radialGradient id="paint0_radial_72_1302" cx="0" cy="0" r="1" gradientUnits="userSpaceOnUse" gradientTransform="translate(197.96 597.653) rotate(122.117) scale(674.612)">
<stop offset="0.724905" stop-color="#8EFF8B"/>
<stop offset="0.884479" stop-color="#020A02"/>
</radialGradient>
<radialGradient id="paint1_radial_72_1302" cx="0" cy="0" r="1" gradientUnits="userSpaceOnUse" gradientTransform="translate(1334.72 346.067) rotate(122.117) scale(337.809)">
<stop offset="0.724905" stop-color="#8EFF8B"/>
<stop offset="0.884479" stop-color="#020A02"/>
</radialGradient>
<clipPath id="clip0_72_1302">
<rect width="440" height="441" fill="white"/>
</clipPath>
</defs>
</svg>
